<?xml version="1.0" encoding="UTF-8"?>
<svg version="1.1" xmlns="http://www.w3.org/2000/svg" width="500" height="500">
<path d="M0 0 C3.0190434 1.75299294 5.41511201 3.83022401 7 7 C7.13415472 9.6723621 7.04318541 12.32250488 7 15 C8.0415625 15.268125 9.083125 15.53625 10.15625 15.8125 C25.21431579 19.8590342 38.22992533 25.58161235 50 36 C50.969375 36.77214844 51.93875 37.54429687 52.9375 38.33984375 C70.71248308 53.14671354 80.08818974 77.71114475 82.625 100.0625 C82.75971412 101.70756671 82.88482005 103.35345029 83 105 C83.07734375 105.82113281 83.1546875 106.64226562 83.234375 107.48828125 C83.28078125 108.27589844 83.3271875 109.06351562 83.375 109.875 C83.42398438 110.57367188 83.47296875 111.27234375 83.5234375 111.9921875 C82.67809776 115.23475934 80.7559579 116.21112664 78 118 C75.37217683 118.37157335 73.17515591 118.51470004 70.55659485 118.46324158 C69.81617185 118.46469242 69.07574886 118.46614327 68.3128888 118.46763808 C65.83614908 118.4675405 63.36059308 118.43870919 60.8840332 118.40991211 C59.1064452 118.40383123 57.32885055 118.39948 55.55125427 118.39672852 C50.72435616 118.38394918 45.89795906 118.34584616 41.07125115 118.30244136 C36.01511275 118.26042903 30.95888179 118.23893576 25.90263367 118.2144928 C17.40606232 118.17018418 8.90972347 118.10963474 0.41333008 118.03930664 C-9.39482821 117.95830087 -19.20288857 117.90192998 -29.01128262 117.85910028 C-38.45722611 117.81735245 -47.90299416 117.75887322 -57.34879494 117.69256783 C-61.36247603 117.66463432 -65.37612894 117.64235183 -69.38986778 117.62464714 C-74.12519498 117.60294052 -78.86019169 117.56647526 -83.59532738 117.51889801 C-85.32781849 117.5037825 -87.06036102 117.49358677 -88.79291153 117.48882484 C-108.65774724 117.42710554 -108.65774724 117.42710554 -117.3125 111.875 C-121.49907354 107.39633994 -124.52614271 102.7904929 -125.5625 96.6875 C-124.84879134 93.27755864 -123.8512884 91.98006139 -121 90 C-118.52263982 90.07507152 -117.39346408 90.7009673 -115.4375 92.1875 C-114 94 -114 94 -112.75 97 C-110.54696344 100.7766341 -108.03530138 101.78470585 -104 103 C-100.38003649 103.4515213 -100.38003649 103.4515213 -96.55250549 103.39872742 C-95.83598641 103.40537424 -95.11946732 103.41202107 -94.38123554 103.41886932 C-91.99823155 103.43741087 -89.61573356 103.4349001 -87.23266602 103.43237305 C-85.51736243 103.44139564 -83.80206528 103.45172408 -82.08677673 103.46325684 C-77.44269414 103.49079462 -72.798734 103.50010699 -68.15458035 103.50611091 C-63.29652142 103.51550294 -58.43855365 103.54170703 -53.58055115 103.56611633 C-44.38681726 103.60976216 -35.19310109 103.63832092 -25.99929518 103.66143972 C-15.53011385 103.68850164 -5.06102432 103.73241256 5.40809143 103.77772844 C26.93867822 103.87054728 48.46929248 103.94224068 70 104 C69.23229587 100.48900866 68.4530726 96.9806678 67.671875 93.47265625 C67.45644043 92.48672485 67.24100586 91.50079346 67.01904297 90.48498535 C62.48236544 70.21750498 51.76632614 52.7928956 34.25 41.25 C18.53795049 31.33028408 0.32035538 27.20385283 -18.04370117 31.07861328 C-31.76662336 34.36786613 -43.49658731 40.89877575 -53.734375 50.65234375 C-56.41141925 53.14309884 -57.50610954 54.00949789 -61.25 53.9375 C-64 53 -64 53 -66 51 C-66.61094315 47.60587137 -66.66809003 45.17340903 -64.92578125 42.11328125 C-52.90073063 27.18040982 -34.22264976 19.73685218 -16 16 C-15.34 16 -14.68 16 -14 16 C-14.226875 14.96875 -14.45375 13.9375 -14.6875 12.875 C-15.04604586 8.42903133 -14.42720605 6.68265746 -12 3 C-8.73232202 -0.63075331 -4.6274044 -0.97699517 0 0 Z " fill="#FFFFFF" transform="translate(322,191)"/>
<path d="M0 0 C1.07258057 -0.00555908 2.14516113 -0.01111816 3.25024414 -0.0168457 C19.7592992 0.13294565 37.26479398 2.95831058 49.91796875 14.3828125 C57.30884976 22.11025457 58.9400519 29.00903899 59.0234375 39.515625 C58.55646924 42.79355907 57.64957393 44.70273454 55.625 47.3125 C52.4375 47.625 52.4375 47.625 49.625 47.3125 C47.68264613 43.42779226 46.42290515 40.62030122 46.625 36.25 C46.625 31.86456143 46.03961944 29.93442916 43.625 26.3125 C38.33302735 21.02052735 31.91082522 17.96087675 24.625 16.3125 C24.295 17.6325 23.965 18.9525 23.625 20.3125 C21.315 19.9825 19.005 19.6525 16.625 19.3125 C16.295 17.6625 15.965 16.0125 15.625 14.3125 C-8.39968312 14.03036803 -8.39968312 14.03036803 -32.375 15.3125 C-31.3810955 18.19482306 -30.49135452 19.23710567 -27.90258789 20.91455078 C-23.35373355 22.71721809 -19.40760542 22.79895658 -14.55859375 22.8671875 C-12.64126001 22.92525438 -10.72394267 22.98386453 -8.80664062 23.04296875 C-5.80257973 23.11923268 -2.79866309 23.18776637 0.20581055 23.24560547 C3.11865587 23.30701873 6.02946499 23.3979371 8.94140625 23.4921875 C9.83735001 23.50071747 10.73329376 23.50924744 11.65638733 23.51803589 C16.09145369 23.67611347 18.06816149 23.88915229 21.69750977 26.6484375 C24.20240069 30.11054893 24.17071126 32.20565773 24 36.4375 C23.96648437 37.65695312 23.93296875 38.87640625 23.8984375 40.1328125 C23.625 43.3125 23.625 43.3125 22.625 46.3125 C20.315 46.3125 18.005 46.3125 15.625 46.3125 C14.1466774 43.35585481 14.56467217 40.57020263 14.625 37.3125 C13.84608398 37.31540039 13.06716797 37.31830078 12.26464844 37.32128906 C4.13128747 37.33823861 -3.99430177 37.27428489 -12.125 37.0625 C-13.27871094 37.04832031 -14.43242187 37.03414063 -15.62109375 37.01953125 C-24.57411192 36.76431408 -32.98188052 35.06079279 -39.375 28.3125 C-43.17667208 22.43718861 -46.44517386 15.46703308 -45.375 8.3125 C-44.125 5.6328125 -44.125 5.6328125 -41.375 3.3125 C-37.40410895 2.20678846 -33.41009967 1.85952428 -29.3125 1.5 C-28.12253418 1.38309814 -26.93256836 1.26619629 -25.70654297 1.14575195 C-17.14133484 0.37808885 -8.59799433 0.0369741 0 0 Z " fill="#FFFFFF" transform="translate(223.375,243.6875)"/>
<path d="M0 0 C1.09834167 -0.00622879 2.19668335 -0.01245758 3.32830811 -0.01887512 C4.51579651 -0.00966537 5.70328491 -0.00045563 6.92675781 0.0090332 C8.14888977 0.0085347 9.37102173 0.00803619 10.63018799 0.00752258 C13.21929548 0.00986543 15.80840514 0.01960624 18.39746094 0.03613281 C22.35014378 0.05963761 26.30214825 0.05670575 30.25488281 0.05004883 C32.77051182 0.05562856 35.28613799 0.06274029 37.80175781 0.0715332 C38.98114929 0.0706218 40.16054077 0.06971039 41.37567139 0.06877136 C47.13258309 0.11816597 52.25065956 0.20946143 57.62988281 2.37231445 C59.25488281 4.68481445 59.25488281 4.68481445 59.62988281 7.37231445 C58.49468994 10.00282288 58.49468994 10.00282288 56.62988281 12.37231445 C54.15228271 12.98704529 54.15228271 12.98704529 51.16796875 12.97167969 C49.49042511 12.98079628 49.49042511 12.98079628 47.7789917 12.99009705 C46.56962952 12.97056473 45.36026733 12.95103241 44.11425781 12.9309082 C42.86992981 12.92857681 41.62560181 12.92624542 40.34356689 12.92384338 C37.70653805 12.91408663 35.07165859 12.8949844 32.43505859 12.859375 C28.4099448 12.80541905 24.38582935 12.7979074 20.36035156 12.79223633 C17.79914071 12.77814183 15.23794044 12.7619344 12.67675781 12.7434082 C11.47549255 12.7380455 10.27422729 12.7326828 9.03656006 12.72715759 C3.20026639 12.6446558 -1.86646031 12.37487276 -7.37011719 10.37231445 C-8.05761719 7.05981445 -8.05761719 7.05981445 -8.37011719 3.37231445 C-6.10659901 -0.00308145 -3.88598239 -0.00252925 0 0 Z " fill="#FFFFFF" transform="translate(103.3701171875,295.627685546875)"/>
<path d="M0 0 C1.23152802 -0.00637985 2.46305603 -0.0127597 3.73190308 -0.01933289 C5.08705608 -0.02086162 6.44220961 -0.02197555 7.79736328 -0.02270508 C9.17880285 -0.02591636 10.56024207 -0.02928033 11.94168091 -0.03279114 C14.841988 -0.03878924 17.74226527 -0.04063039 20.64257812 -0.04003906 C24.36069937 -0.03993751 28.07862932 -0.05357903 31.79670525 -0.07081127 C34.65171183 -0.08192676 37.50667214 -0.0839584 40.36169815 -0.08342934 C41.73244001 -0.08461055 43.10318303 -0.08904023 44.47390366 -0.0967617 C46.39143164 -0.10654995 48.30901545 -0.10242231 50.2265625 -0.09765625 C51.86418045 -0.09979378 51.86418045 -0.09979378 53.53488159 -0.10197449 C56.24267578 0.14526367 56.24267578 0.14526367 59.24267578 2.14526367 C60.23759396 5.05348603 60.54617699 6.48067999 59.25439453 9.30932617 C58.92052734 9.91518555 58.58666016 10.52104492 58.24267578 11.14526367 C50.22802232 11.23797574 42.21359319 11.30903405 34.19853592 11.35251236 C30.4767283 11.37338071 26.75528776 11.40168348 23.03369141 11.44702148 C19.44158068 11.4905078 15.84982283 11.51440644 12.25746918 11.52477264 C10.88750402 11.53215917 9.51755801 11.54658369 8.14774323 11.5681839 C6.22808189 11.59724847 4.30806488 11.59889783 2.38818359 11.59936523 C1.2956427 11.60824768 0.20310181 11.61713013 -0.92254639 11.62628174 C-4.44483258 11.02860411 -5.65348138 9.99225139 -7.75732422 7.14526367 C-7.3632977 0.44681288 -6.36403941 0.0222523 0 0 Z " fill="#FFFFFF" transform="translate(119.75732421875,219.854736328125)"/>
<path d="M0 0 C1.20978516 0.00322266 2.41957031 0.00644531 3.66601562 0.00976562 C5.47489258 -0.0144043 5.47489258 -0.0144043 7.3203125 -0.0390625 C9.0518457 -0.0400293 9.0518457 -0.0400293 10.81835938 -0.04101562 C11.87917725 -0.04399658 12.93999512 -0.04697754 14.03295898 -0.05004883 C16.72851562 0.32226562 16.72851562 0.32226562 18.54711914 1.72387695 C19.97625311 3.65744589 20.51025951 4.92144837 20.72851562 7.32226562 C20.06851563 8.64226562 19.40851563 9.96226562 18.72851562 11.32226562 C9.15851563 11.32226562 -0.41148437 11.32226562 -10.27148438 11.32226562 C-12.34852329 7.1681878 -12.58661594 6.48684892 -11.27148438 2.32226562 C-8.06958725 -0.8796315 -4.3651829 0.02684014 0 0 Z " fill="#FFFFFF" transform="translate(148.271484375,250.677734375)"/>
<path d="M0 0 C1.20591797 -0.020625 2.41183594 -0.04125 3.65429688 -0.0625 C4.80865234 -0.06765625 5.96300781 -0.0728125 7.15234375 -0.078125 C8.21316162 -0.0874707 9.27397949 -0.09681641 10.36694336 -0.10644531 C13.0625 0.25 13.0625 0.25 14.91235352 1.57910156 C16.67807438 4.14428806 16.38402474 6.22766742 16.0625 9.25 C12.80791131 12.50458869 8.86775164 11.54603956 4.43554688 11.57226562 C3.17806641 11.56904297 1.92058594 11.56582031 0.625 11.5625 C-0.62861328 11.57861328 -1.88222656 11.59472656 -3.17382812 11.61132812 C-4.37330078 11.61197266 -5.57277344 11.61261719 -6.80859375 11.61328125 C-7.91130615 11.61626221 -9.01401855 11.61924316 -10.15014648 11.62231445 C-12.9375 11.25 -12.9375 11.25 -14.83227539 9.95385742 C-15.9375 8.25 -15.9375 8.25 -15.75 4.625 C-15.481875 3.51125 -15.21375 2.3975 -14.9375 1.25 C-10.5945639 -0.92146805 -4.7702644 0.02033144 0 0 Z " fill="#FFFFFF" transform="translate(203.9375,221.75)"/>
<path d="M0 0 C1.10601562 0.00483398 1.10601562 0.00483398 2.234375 0.00976562 C2.97171875 -0.00634766 3.7090625 -0.02246094 4.46875 -0.0390625 C6.609375 -0.04101562 6.609375 -0.04101562 10.234375 0.32226562 C12.53601382 3.77472386 12.57927822 5.26965275 12.234375 9.32226562 C9.67488501 11.88175562 7.96230305 11.58295293 4.46875 11.59570312 C3.73140625 11.58796875 2.9940625 11.58023437 2.234375 11.57226562 C1.12835938 11.58386719 1.12835938 11.58386719 0 11.59570312 C-5.5123054 11.57558522 -5.5123054 11.57558522 -7.765625 9.32226562 C-8.015625 5.82226562 -8.015625 5.82226562 -7.765625 2.32226562 C-5.2145216 -0.22883778 -3.48625418 0.03498978 0 0 Z " fill="#FFFFFF" transform="translate(176.765625,280.677734375)"/>
</svg>
